<?xml version="1.0" encoding="utf-8"?>
<!-- Generator: Adobe Illustrator 22.0.0, SVG Export Plug-In . SVG Version: 6.00 Build 0)  -->
<svg version="1.1" id="Layer_1" xmlns="http://www.w3.org/2000/svg" xmlns:xlink="http://www.w3.org/1999/xlink" x="0px" y="0px"
	 viewBox="0 0 50 50" style="enable-background:new 0 0 50 50;" xml:space="preserve">
<style type="text/css">
	.st0{fill:#F6F6F6;}
</style>
<g>
	<g>
		<g>
			<path class="st0" d="M39.2,7.2v41.2c0,0.9-0.7,1.6-1.6,1.6H5.9c-0.9,0-1.6-0.7-1.6-1.6V7.2c0-0.9,0.7-1.6,1.6-1.6h31.7
				C38.5,5.6,39.2,6.3,39.2,7.2z M13.8,12.8c0-0.4-0.3-0.8-0.8-0.8h-1.6c-0.4,0-0.8,0.3-0.8,0.8v1.6c0,0.4,0.3,0.8,0.8,0.8H13
				c0.4,0,0.8-0.3,0.8-0.8V12.8z M13.8,19.1c0-0.4-0.3-0.8-0.8-0.8h-1.6c-0.4,0-0.8,0.3-0.8,0.8v1.6c0,0.4,0.3,0.8,0.8,0.8H13
				c0.4,0,0.8-0.3,0.8-0.8V19.1z M13.8,25.4c0-0.4-0.3-0.8-0.8-0.8h-1.6c-0.4,0-0.8,0.3-0.8,0.8V27c0,0.4,0.3,0.8,0.8,0.8H13
				c0.4,0,0.8-0.3,0.8-0.8V25.4z M13.8,31.8c0-0.4-0.3-0.8-0.8-0.8h-1.6c-0.4,0-0.8,0.3-0.8,0.8v1.6c0,0.4,0.3,0.8,0.8,0.8H13
				c0.4,0,0.8-0.3,0.8-0.8V31.8z M13.8,38.1c0-0.4-0.3-0.8-0.8-0.8h-1.6c-0.4,0-0.8,0.3-0.8,0.8v1.6c0,0.4,0.3,0.8,0.8,0.8H13
				c0.4,0,0.8-0.3,0.8-0.8V38.1z M17,14.3c0,0.4,0.3,0.8,0.8,0.8h1.6c0.4,0,0.8-0.3,0.8-0.8v-1.6c0-0.4-0.3-0.8-0.8-0.8h-1.6
				c-0.4,0-0.8,0.3-0.8,0.8V14.3z M17,20.7c0,0.4,0.3,0.8,0.8,0.8h1.6c0.4,0,0.8-0.3,0.8-0.8v-1.6c0-0.4-0.3-0.8-0.8-0.8h-1.6
				c-0.4,0-0.8,0.3-0.8,0.8V20.7z M17,27c0,0.4,0.3,0.8,0.8,0.8h1.6c0.4,0,0.8-0.3,0.8-0.8v-1.6c0-0.4-0.3-0.8-0.8-0.8h-1.6
				c-0.4,0-0.8,0.3-0.8,0.8V27z M17,33.4c0,0.4,0.3,0.8,0.8,0.8h1.6c0.4,0,0.8-0.3,0.8-0.8v-1.6c0-0.4-0.3-0.8-0.8-0.8h-1.6
				c-0.4,0-0.8,0.3-0.8,0.8V33.4z M26.5,41.3c0-0.4-0.3-0.8-0.8-0.8h-7.9c-0.4,0-0.8,0.3-0.8,0.8V46c0,0.4,0.3,0.8,0.8,0.8h7.9
				c0.4,0,0.8-0.3,0.8-0.8V41.3z M26.5,12.8c0-0.4-0.3-0.8-0.8-0.8h-1.6c-0.4,0-0.8,0.3-0.8,0.8v1.6c0,0.4,0.3,0.8,0.8,0.8h1.6
				c0.4,0,0.8-0.3,0.8-0.8V12.8z M26.5,19.1c0-0.4-0.3-0.8-0.8-0.8h-1.6c-0.4,0-0.8,0.3-0.8,0.8v1.6c0,0.4,0.3,0.8,0.8,0.8h1.6
				c0.4,0,0.8-0.3,0.8-0.8V19.1z M26.5,25.4c0-0.4-0.3-0.8-0.8-0.8h-1.6c-0.4,0-0.8,0.3-0.8,0.8V27c0,0.4,0.3,0.8,0.8,0.8h1.6
				c0.4,0,0.8-0.3,0.8-0.8V25.4z M26.5,31.8c0-0.4-0.3-0.8-0.8-0.8h-1.6c-0.4,0-0.8,0.3-0.8,0.8v1.6c0,0.4,0.3,0.8,0.8,0.8h1.6
				c0.4,0,0.8-0.3,0.8-0.8V31.8z M32.8,12.8c0-0.4-0.3-0.8-0.8-0.8h-1.6c-0.4,0-0.8,0.3-0.8,0.8v1.6c0,0.4,0.3,0.8,0.8,0.8h1.6
				c0.4,0,0.8-0.3,0.8-0.8V12.8z M32.8,19.1c0-0.4-0.3-0.8-0.8-0.8h-1.6c-0.4,0-0.8,0.3-0.8,0.8v1.6c0,0.4,0.3,0.8,0.8,0.8h1.6
				c0.4,0,0.8-0.3,0.8-0.8V19.1z M32.8,25.4c0-0.4-0.3-0.8-0.8-0.8h-1.6c-0.4,0-0.8,0.3-0.8,0.8V27c0,0.4,0.3,0.8,0.8,0.8h1.6
				c0.4,0,0.8-0.3,0.8-0.8V25.4z M32.8,31.8c0-0.4-0.3-0.8-0.8-0.8h-1.6c-0.4,0-0.8,0.3-0.8,0.8v1.6c0,0.4,0.3,0.8,0.8,0.8h1.6
				c0.4,0,0.8-0.3,0.8-0.8V31.8z M32.8,38.1c0-0.4-0.3-0.8-0.8-0.8h-1.6c-0.4,0-0.8,0.3-0.8,0.8v1.6c0,0.4,0.3,0.8,0.8,0.8h1.6
				c0.4,0,0.8-0.3,0.8-0.8V38.1z"/>
		</g>
	</g>
	<path class="st0" d="M43.2,0H11.5c-0.9,0-1.6,0.7-1.6,1.6v1.2h30.5c0.9,0,1.6,0.7,1.6,1.6v40h1.2c0.9,0,1.6-0.7,1.6-1.6V1.6
		C44.8,0.7,44.1,0,43.2,0z"/>
</g>
</svg>
