<?xml version="1.0" encoding="utf-8"?>
<!-- Generator: Adobe Illustrator 22.0.0, SVG Export Plug-In . SVG Version: 6.00 Build 0)  -->
<svg version="1.1" id="Layer_1" xmlns="http://www.w3.org/2000/svg" xmlns:xlink="http://www.w3.org/1999/xlink" x="0px" y="0px"
	 viewBox="0 0 60 60" style="enable-background:new 0 0 60 60;" xml:space="preserve">
<style type="text/css">
	.st0{fill:none;stroke:#C2C1C1;stroke-width:5;stroke-miterlimit:10;stroke-dasharray:7;}
	.st1{fill:#AA3030;}
</style>
<circle class="st0" cx="30" cy="30.1" r="27.4"/>
<path class="st1" d="M30.4,28.3c4.4,0,8-3.6,8-8s-3.6-8-8-8s-8,3.6-8,8S25.9,28.3,30.4,28.3z M36,30.3h-1c-1.4,0.6-2.9,1-4.6,1
	c-1.6,0-3.2-0.4-4.6-1h-1c-4.6,0-8.4,3.8-8.4,8.4v2.6c0,1.7,1.3,3,3,3h22c1.7,0,3-1.3,3-3v-2.6C44.4,34.1,40.6,30.3,36,30.3z"/>
</svg>
