<?xml version="1.0" encoding="utf-8"?>
<!-- Generator: Adobe Illustrator 22.0.0, SVG Export Plug-In . SVG Version: 6.00 Build 0)  -->
<svg version="1.1" id="Layer_1" xmlns="http://www.w3.org/2000/svg" xmlns:xlink="http://www.w3.org/1999/xlink" x="0px" y="0px"
	 viewBox="0 0 50 50" style="enable-background:new 0 0 50 50;" xml:space="preserve">
<style type="text/css">
	.st0{fill:#FFFFFF;}
</style>
<g>
	<path class="st0" d="M23.1,41.4h-3.7c-0.4,0-0.8-0.3-0.8-0.8v-4.8c0-0.4,0.3-0.8,0.8-0.8h4.5c1.4-3.3,4.2-5.8,7.6-6.9
		c0-0.1-0.1-0.2-0.1-0.3v-1.6c0-0.4,0.3-0.8,0.8-0.8h1.6c0.4,0,0.8,0.3,0.8,0.8v1.3c0.2,0,0.4-0.1,0.6-0.1c2.1,0,4,0.6,5.8,1.5V1.6
		c0-0.9-0.7-1.6-1.6-1.6H7.5C6.6,0,5.9,0.7,5.9,1.6V43c0,0.9,0.7,1.6,1.6,1.6H24C23.5,43.6,23.3,42.5,23.1,41.4z M31.4,7.2
		c0-0.4,0.3-0.8,0.8-0.8h1.6c0.4,0,0.8,0.3,0.8,0.8v1.6c0,0.4-0.3,0.8-0.8,0.8h-1.6c-0.4,0-0.8-0.3-0.8-0.8V7.2z M31.4,13.5
		c0-0.4,0.3-0.8,0.8-0.8h1.6c0.4,0,0.8,0.3,0.8,0.8v1.6c0,0.4-0.3,0.8-0.8,0.8h-1.6c-0.4,0-0.8-0.3-0.8-0.8V13.5z M31.4,19.9
		c0-0.4,0.3-0.8,0.8-0.8h1.6c0.4,0,0.8,0.3,0.8,0.8v1.6c0,0.4-0.3,0.8-0.8,0.8h-1.6c-0.4,0-0.8-0.3-0.8-0.8V19.9z M25,7.2
		c0-0.4,0.3-0.8,0.8-0.8h1.6c0.4,0,0.8,0.3,0.8,0.8v1.6c0,0.4-0.3,0.8-0.8,0.8h-1.6c-0.4,0-0.8-0.3-0.8-0.8V7.2z M25,13.5
		c0-0.4,0.3-0.8,0.8-0.8h1.6c0.4,0,0.8,0.3,0.8,0.8v1.6c0,0.4-0.3,0.8-0.8,0.8h-1.6c-0.4,0-0.8-0.3-0.8-0.8V13.5z M25,19.9
		c0-0.4,0.3-0.8,0.8-0.8h1.6c0.4,0,0.8,0.3,0.8,0.8v1.6c0,0.4-0.3,0.8-0.8,0.8h-1.6c-0.4,0-0.8-0.3-0.8-0.8V19.9z M25,26.3
		c0-0.4,0.3-0.8,0.8-0.8h1.6c0.4,0,0.8,0.3,0.8,0.8v1.6c0,0.4-0.3,0.8-0.8,0.8h-1.6c-0.4,0-0.8-0.3-0.8-0.8V26.3z M18.6,7.2
		c0-0.4,0.3-0.8,0.8-0.8H21c0.4,0,0.8,0.3,0.8,0.8v1.6c0,0.4-0.3,0.8-0.8,0.8h-1.6c-0.4,0-0.8-0.3-0.8-0.8V7.2z M18.6,13.5
		c0-0.4,0.3-0.8,0.8-0.8H21c0.4,0,0.8,0.3,0.8,0.8v1.6c0,0.4-0.3,0.8-0.8,0.8h-1.6c-0.4,0-0.8-0.3-0.8-0.8V13.5z M18.6,19.9
		c0-0.4,0.3-0.8,0.8-0.8H21c0.4,0,0.8,0.3,0.8,0.8v1.6c0,0.4-0.3,0.8-0.8,0.8h-1.6c-0.4,0-0.8-0.3-0.8-0.8V19.9z M18.6,26.3
		c0-0.4,0.3-0.8,0.8-0.8H21c0.4,0,0.8,0.3,0.8,0.8v1.6c0,0.4-0.3,0.8-0.8,0.8h-1.6c-0.4,0-0.8-0.3-0.8-0.8V26.3z M15.4,34.2
		c0,0.4-0.3,0.8-0.8,0.8H13c-0.4,0-0.8-0.3-0.8-0.8v-1.6c0-0.4,0.3-0.8,0.8-0.8h1.6c0.4,0,0.8,0.3,0.8,0.8V34.2z M15.4,27.9
		c0,0.4-0.3,0.8-0.8,0.8H13c-0.4,0-0.8-0.3-0.8-0.8v-1.6c0-0.4,0.3-0.8,0.8-0.8h1.6c0.4,0,0.8,0.3,0.8,0.8V27.9z M15.4,21.5
		c0,0.4-0.3,0.8-0.8,0.8H13c-0.4,0-0.8-0.3-0.8-0.8v-1.6c0-0.4,0.3-0.8,0.8-0.8h1.6c0.4,0,0.8,0.3,0.8,0.8V21.5z M15.4,15.1
		c0,0.4-0.3,0.8-0.8,0.8H13c-0.4,0-0.8-0.3-0.8-0.8v-1.6c0-0.4,0.3-0.8,0.8-0.8h1.6c0.4,0,0.8,0.3,0.8,0.8V15.1z M15.4,8.8
		c0,0.4-0.3,0.8-0.8,0.8H13c-0.4,0-0.8-0.3-0.8-0.8V7.2c0-0.4,0.3-0.8,0.8-0.8h1.6c0.4,0,0.8,0.3,0.8,0.8V8.8z"/>
	<g>
		<path class="st0" d="M35.1,50c-5.5,0-10-4.5-10-10s4.5-10,10-10s10,4.5,10,10S40.7,50,35.1,50z M41,39.1c0-0.5-0.4-0.8-0.8-0.8
			h-3.3V35c0-0.5-0.4-0.8-0.8-0.8h-1.7c-0.5,0-0.8,0.4-0.8,0.8v3.3h-3.3c-0.5,0-0.8,0.4-0.8,0.8v1.7c0,0.5,0.4,0.8,0.8,0.8h3.3V45
			c0,0.5,0.4,0.8,0.8,0.8H36c0.5,0,0.8-0.4,0.8-0.8v-3.3h3.3c0.5,0,0.8-0.4,0.8-0.8V39.1z"/>
	</g>
</g>
</svg>
