<?xml version="1.0" encoding="utf-8"?>
<!-- Generator: Adobe Illustrator 22.0.0, SVG Export Plug-In . SVG Version: 6.00 Build 0)  -->
<svg version="1.1" id="Layer_1" xmlns="http://www.w3.org/2000/svg" xmlns:xlink="http://www.w3.org/1999/xlink" x="0px" y="0px"
	 viewBox="0 0 347 78" style="enable-background:new 0 0 347 78;" xml:space="preserve">
<style type="text/css">
	.st0{fill-rule:evenodd;clip-rule:evenodd;fill:#231F20;}
	.st1{fill-rule:evenodd;clip-rule:evenodd;fill:#244DA0;}
	.st2{fill-rule:evenodd;clip-rule:evenodd;fill:#8A8D8C;}
	.st3{fill:none;stroke:#231F20;stroke-width:0.5021;stroke-miterlimit:3.8637;}
</style>
<g>
	<path class="st0" d="M133,64l1.8-0.3c0.1,0.3,0.2,0.6,0.5,0.8c0.2,0.2,0.6,0.3,1,0.3c0.5,0,0.8-0.1,1-0.3c0.2-0.1,0.2-0.3,0.2-0.5
		c0-0.1,0-0.2-0.1-0.3c-0.1-0.1-0.3-0.2-0.6-0.2c-1.4-0.3-2.3-0.6-2.7-0.9c-0.5-0.4-0.8-0.9-0.8-1.5c0-0.6,0.2-1.1,0.7-1.5
		c0.5-0.4,1.2-0.6,2.1-0.6c0.9,0,1.6,0.1,2,0.4c0.4,0.3,0.8,0.7,0.9,1.3l-1.7,0.3c-0.1-0.3-0.2-0.5-0.4-0.6
		c-0.2-0.1-0.5-0.2-0.9-0.2c-0.5,0-0.8,0.1-1,0.2c-0.1,0.1-0.2,0.2-0.2,0.4c0,0.1,0.1,0.2,0.2,0.3c0.2,0.1,0.7,0.3,1.7,0.5
		c0.9,0.2,1.6,0.5,2,0.8c0.4,0.3,0.6,0.8,0.6,1.3c0,0.6-0.3,1.1-0.8,1.6c-0.5,0.4-1.3,0.7-2.3,0.7c-0.9,0-1.6-0.2-2.2-0.6
		C133.5,65.2,133.2,64.7,133,64z"/>
	<path class="st0" d="M142.2,62.6c0,0.7,0.2,1.2,0.5,1.5c0.3,0.4,0.7,0.5,1.2,0.5c0.5,0,0.8-0.2,1.2-0.5c0.3-0.4,0.5-0.9,0.5-1.5
		c0-0.7-0.2-1.2-0.5-1.5c-0.3-0.4-0.7-0.5-1.2-0.5c-0.5,0-0.8,0.2-1.2,0.5C142.4,61.4,142.2,61.9,142.2,62.6z M140.4,62.5
		c0-0.6,0.1-1.2,0.4-1.7c0.3-0.6,0.7-1,1.2-1.3c0.5-0.3,1.1-0.4,1.8-0.4c1,0,1.8,0.3,2.5,1c0.6,0.7,1,1.5,1,2.5c0,1-0.3,1.9-1,2.5
		c-0.7,0.7-1.5,1-2.5,1c-0.6,0-1.2-0.1-1.8-0.4c-0.6-0.3-1-0.7-1.3-1.2C140.6,63.9,140.4,63.3,140.4,62.5z"/>
	<rect x="148.7" y="56.7" class="st0" width="1.8" height="9.2"/>
	<path class="st0" d="M156.7,65.9v-1c-0.2,0.4-0.6,0.6-1,0.9c-0.4,0.2-0.8,0.3-1.3,0.3c-0.4,0-0.9-0.1-1.2-0.3
		c-0.4-0.2-0.6-0.5-0.8-0.8c-0.2-0.4-0.2-0.9-0.2-1.5v-4.2h1.8v3.1c0,0.9,0,1.5,0.1,1.7c0.1,0.2,0.2,0.4,0.4,0.5
		c0.2,0.1,0.4,0.2,0.7,0.2c0.3,0,0.6-0.1,0.8-0.2c0.2-0.2,0.4-0.4,0.5-0.6c0.1-0.2,0.1-0.8,0.1-1.8v-2.8h1.8v6.7H156.7z"/>
	<path class="st0" d="M166,61.2l-1.7,0.3c-0.1-0.3-0.2-0.6-0.4-0.8c-0.2-0.2-0.5-0.3-0.8-0.3c-0.4,0-0.8,0.2-1.1,0.5
		c-0.3,0.3-0.4,0.8-0.4,1.5c0,0.8,0.1,1.4,0.4,1.7c0.3,0.3,0.6,0.5,1.1,0.5c0.3,0,0.6-0.1,0.8-0.3c0.2-0.2,0.4-0.5,0.5-1l1.7,0.3
		c-0.2,0.8-0.5,1.4-1,1.8c-0.5,0.4-1.2,0.6-2.1,0.6c-1,0-1.8-0.3-2.3-0.9c-0.6-0.6-0.9-1.5-0.9-2.6c0-1.1,0.3-2,0.9-2.6
		c0.6-0.6,1.4-0.9,2.4-0.9c0.8,0,1.5,0.2,1.9,0.5C165.4,60,165.8,60.5,166,61.2z"/>
	<path class="st0" d="M167.3,65.9v-6.7h1.8v6.7H167.3z M167.3,58.3v-1.6h1.8v1.6H167.3z"/>
	<path class="st0" d="M172.3,62.6c0,0.7,0.2,1.2,0.5,1.5c0.3,0.4,0.7,0.5,1.2,0.5c0.5,0,0.8-0.2,1.2-0.5c0.3-0.4,0.5-0.9,0.5-1.5
		c0-0.7-0.2-1.2-0.5-1.5c-0.3-0.4-0.7-0.5-1.2-0.5c-0.5,0-0.8,0.2-1.2,0.5C172.4,61.4,172.3,61.9,172.3,62.6z M170.5,62.5
		c0-0.6,0.1-1.2,0.4-1.7c0.3-0.6,0.7-1,1.2-1.3c0.5-0.3,1.1-0.4,1.8-0.4c1,0,1.8,0.3,2.5,1c0.6,0.7,1,1.5,1,2.5c0,1-0.3,1.9-1,2.5
		c-0.7,0.7-1.5,1-2.5,1c-0.6,0-1.2-0.1-1.8-0.4c-0.6-0.3-1-0.7-1.3-1.2C170.6,63.9,170.5,63.3,170.5,62.5z"/>
	<path class="st0" d="M184.8,65.9h-1.8v-3.4c0-0.7,0-1.2-0.1-1.4c-0.1-0.2-0.2-0.4-0.4-0.5c-0.2-0.1-0.4-0.2-0.6-0.2
		c-0.3,0-0.6,0.1-0.8,0.3c-0.2,0.2-0.4,0.4-0.5,0.7c-0.1,0.3-0.1,0.8-0.1,1.5v3h-1.8v-6.7h1.6v1c0.6-0.7,1.3-1.1,2.2-1.1
		c0.4,0,0.8,0.1,1.1,0.2c0.3,0.1,0.6,0.3,0.7,0.5c0.2,0.2,0.3,0.5,0.3,0.7c0.1,0.3,0.1,0.7,0.1,1.2V65.9z"/>
	<path class="st0" d="M190.6,62c0-0.5-0.1-0.9-0.4-1.2c-0.3-0.3-0.6-0.4-0.9-0.4c-0.4,0-0.7,0.1-1,0.4c-0.3,0.3-0.4,0.7-0.4,1.1
		H190.6z M190.5,63.8l1.8,0.3c-0.2,0.6-0.6,1.1-1.1,1.5c-0.5,0.3-1.1,0.5-1.8,0.5c-1.2,0-2-0.4-2.6-1.1c-0.4-0.6-0.7-1.4-0.7-2.3
		c0-1.1,0.3-2,0.9-2.6c0.6-0.6,1.3-0.9,2.2-0.9c1,0,1.8,0.3,2.4,1c0.6,0.7,0.8,1.7,0.8,3h-4.4c0,0.5,0.2,0.9,0.4,1.2s0.6,0.4,1,0.4
		c0.3,0,0.5-0.1,0.7-0.2C190.3,64.4,190.4,64.1,190.5,63.8z"/>
	<path class="st0" d="M193.2,64l1.8-0.3c0.1,0.3,0.2,0.6,0.5,0.8c0.2,0.2,0.6,0.3,1,0.3c0.5,0,0.8-0.1,1-0.3
		c0.2-0.1,0.2-0.3,0.2-0.5c0-0.1,0-0.2-0.1-0.3c-0.1-0.1-0.3-0.2-0.6-0.2c-1.4-0.3-2.3-0.6-2.7-0.9c-0.5-0.4-0.8-0.9-0.8-1.5
		c0-0.6,0.2-1.1,0.7-1.5c0.5-0.4,1.2-0.6,2.1-0.6c0.9,0,1.6,0.1,2,0.4c0.4,0.3,0.8,0.7,0.9,1.3l-1.7,0.3c-0.1-0.3-0.2-0.5-0.4-0.6
		c-0.2-0.1-0.5-0.2-0.9-0.2c-0.5,0-0.8,0.1-1,0.2c-0.1,0.1-0.2,0.2-0.2,0.4c0,0.1,0.1,0.2,0.2,0.3c0.2,0.1,0.7,0.3,1.7,0.5
		c0.9,0.2,1.6,0.5,2,0.8c0.4,0.3,0.6,0.8,0.6,1.3c0,0.6-0.3,1.1-0.8,1.6c-0.5,0.4-1.3,0.7-2.3,0.7c-0.9,0-1.6-0.2-2.2-0.6
		S193.3,64.7,193.2,64z"/>
	<path class="st0" d="M208.5,62c0-0.5-0.1-0.9-0.4-1.2c-0.3-0.3-0.6-0.4-0.9-0.4c-0.4,0-0.7,0.1-1,0.4c-0.3,0.3-0.4,0.7-0.4,1.1
		H208.5z M208.4,63.8l1.8,0.3c-0.2,0.6-0.6,1.1-1.1,1.5c-0.5,0.3-1.1,0.5-1.8,0.5c-1.2,0-2-0.4-2.6-1.1c-0.4-0.6-0.7-1.4-0.7-2.3
		c0-1.1,0.3-2,0.9-2.6c0.6-0.6,1.3-0.9,2.2-0.9c1,0,1.8,0.3,2.4,1c0.6,0.7,0.8,1.7,0.8,3h-4.4c0,0.5,0.2,0.9,0.4,1.2
		c0.3,0.3,0.6,0.4,1,0.4c0.3,0,0.5-0.1,0.7-0.2C208.2,64.4,208.3,64.1,208.4,63.8z"/>
	<path class="st0" d="M215.3,65.9v-6.7h1.8v6.7H215.3z M215.3,58.3v-1.6h1.8v1.6H215.3z"/>
	<path class="st0" d="M225,65.9h-1.8v-3.4c0-0.7,0-1.2-0.1-1.4c-0.1-0.2-0.2-0.4-0.4-0.5c-0.2-0.1-0.4-0.2-0.6-0.2
		c-0.3,0-0.6,0.1-0.8,0.3c-0.2,0.2-0.4,0.4-0.5,0.7c-0.1,0.3-0.1,0.8-0.1,1.5v3h-1.8v-6.7h1.6v1c0.6-0.7,1.3-1.1,2.2-1.1
		c0.4,0,0.8,0.1,1.1,0.2c0.3,0.1,0.6,0.3,0.7,0.5c0.2,0.2,0.3,0.5,0.3,0.7c0.1,0.3,0.1,0.7,0.1,1.2V65.9z"/>
	<path class="st0" d="M232.8,65.9h-1.8v-3.4c0-0.7,0-1.2-0.1-1.4c-0.1-0.2-0.2-0.4-0.4-0.5c-0.2-0.1-0.4-0.2-0.6-0.2
		c-0.3,0-0.6,0.1-0.8,0.3c-0.2,0.2-0.4,0.4-0.5,0.7c-0.1,0.3-0.1,0.8-0.1,1.5v3h-1.8v-6.7h1.6v1c0.6-0.7,1.3-1.1,2.2-1.1
		c0.4,0,0.8,0.1,1.1,0.2c0.3,0.1,0.6,0.3,0.7,0.5c0.2,0.2,0.3,0.5,0.3,0.7c0.1,0.3,0.1,0.7,0.1,1.2V65.9z"/>
	<path class="st0" d="M236,62.6c0,0.7,0.2,1.2,0.5,1.5c0.3,0.4,0.7,0.5,1.2,0.5c0.5,0,0.8-0.2,1.2-0.5c0.3-0.4,0.5-0.9,0.5-1.5
		c0-0.7-0.2-1.2-0.5-1.5c-0.3-0.4-0.7-0.5-1.2-0.5c-0.5,0-0.8,0.2-1.2,0.5C236.2,61.4,236,61.9,236,62.6z M234.2,62.5
		c0-0.6,0.1-1.2,0.4-1.7c0.3-0.6,0.7-1,1.2-1.3c0.5-0.3,1.1-0.4,1.8-0.4c1,0,1.8,0.3,2.5,1c0.6,0.7,1,1.5,1,2.5c0,1-0.3,1.9-1,2.5
		c-0.7,0.7-1.5,1-2.5,1c-0.6,0-1.2-0.1-1.8-0.4c-0.6-0.3-1-0.7-1.3-1.2C234.4,63.9,234.2,63.3,234.2,62.5z"/>
	<path class="st0" d="M244.3,65.9l-2.7-6.7h1.9l1.3,3.4l0.4,1.1c0.1-0.3,0.2-0.5,0.2-0.6c0.1-0.2,0.1-0.4,0.2-0.6l1.3-3.4h1.8
		l-2.7,6.7H244.3z"/>
	<path class="st0" d="M253.4,62.7c-0.2,0.1-0.6,0.2-1.1,0.3c-0.5,0.1-0.8,0.2-1,0.3c-0.2,0.2-0.3,0.4-0.3,0.6c0,0.2,0.1,0.5,0.3,0.6
		c0.2,0.2,0.4,0.3,0.7,0.3c0.3,0,0.6-0.1,0.9-0.3c0.2-0.2,0.4-0.4,0.4-0.6c0-0.2,0.1-0.4,0.1-0.9V62.7z M251,61.3l-1.6-0.3
		c0.2-0.7,0.5-1.1,0.9-1.4c0.4-0.3,1.1-0.5,2-0.5c0.8,0,1.4,0.1,1.8,0.3c0.4,0.2,0.7,0.4,0.8,0.7c0.2,0.3,0.2,0.8,0.2,1.6l0,2.1
		c0,0.6,0,1,0.1,1.3c0.1,0.3,0.2,0.6,0.3,0.9h-1.8c0-0.1-0.1-0.3-0.2-0.5c0-0.1-0.1-0.2-0.1-0.2c-0.3,0.3-0.6,0.5-1,0.7
		c-0.3,0.1-0.7,0.2-1.1,0.2c-0.7,0-1.2-0.2-1.6-0.6c-0.4-0.4-0.6-0.8-0.6-1.4c0-0.4,0.1-0.7,0.3-1c0.2-0.3,0.4-0.5,0.8-0.7
		c0.3-0.2,0.8-0.3,1.4-0.4c0.8-0.2,1.4-0.3,1.7-0.4v-0.2c0-0.3-0.1-0.6-0.3-0.7c-0.2-0.1-0.5-0.2-1-0.2c-0.3,0-0.6,0.1-0.7,0.2
		C251.2,60.8,251.1,61,251,61.3z"/>
	<path class="st0" d="M262.7,61.2l-1.7,0.3c-0.1-0.3-0.2-0.6-0.4-0.8c-0.2-0.2-0.5-0.3-0.8-0.3c-0.4,0-0.8,0.2-1.1,0.5
		c-0.3,0.3-0.4,0.8-0.4,1.5c0,0.8,0.1,1.4,0.4,1.7c0.3,0.3,0.6,0.5,1.1,0.5c0.3,0,0.6-0.1,0.8-0.3c0.2-0.2,0.4-0.5,0.5-1l1.7,0.3
		c-0.2,0.8-0.5,1.4-1,1.8c-0.5,0.4-1.2,0.6-2.1,0.6c-1,0-1.8-0.3-2.3-0.9c-0.6-0.6-0.9-1.5-0.9-2.6c0-1.1,0.3-2,0.9-2.6
		c0.6-0.6,1.4-0.9,2.4-0.9c0.8,0,1.5,0.2,1.9,0.5C262.1,60,262.5,60.5,262.7,61.2z"/>
	<path class="st0" d="M264,65.9v-6.7h1.8v6.7H264z M264,58.3v-1.6h1.8v1.6H264z"/>
	<path class="st0" d="M269.8,58.4l0.9-1.9h2l-1.7,1.9H269.8z M269,62.6c0,0.7,0.2,1.2,0.5,1.5c0.3,0.4,0.7,0.5,1.2,0.5
		c0.5,0,0.8-0.2,1.2-0.5c0.3-0.4,0.5-0.9,0.5-1.5c0-0.7-0.2-1.2-0.5-1.5c-0.3-0.4-0.7-0.5-1.2-0.5c-0.5,0-0.8,0.2-1.2,0.5
		C269.2,61.4,269,61.9,269,62.6z M267.2,62.5c0-0.6,0.1-1.2,0.4-1.7c0.3-0.6,0.7-1,1.2-1.3c0.5-0.3,1.1-0.4,1.8-0.4
		c1,0,1.8,0.3,2.5,1c0.6,0.7,1,1.5,1,2.5c0,1-0.3,1.9-1,2.5c-0.7,0.7-1.5,1-2.5,1c-0.6,0-1.2-0.1-1.8-0.4c-0.6-0.3-1-0.7-1.3-1.2
		C267.3,63.9,267.2,63.3,267.2,62.5z"/>
	<path class="st0" d="M281.6,65.9h-1.8v-3.4c0-0.7,0-1.2-0.1-1.4c-0.1-0.2-0.2-0.4-0.4-0.5c-0.2-0.1-0.4-0.2-0.6-0.2
		c-0.3,0-0.6,0.1-0.8,0.3c-0.2,0.2-0.4,0.4-0.5,0.7c-0.1,0.3-0.1,0.8-0.1,1.5v3h-1.8v-6.7h1.6v1c0.6-0.7,1.3-1.1,2.2-1.1
		c0.4,0,0.8,0.1,1.1,0.2c0.3,0.1,0.6,0.3,0.7,0.5c0.2,0.2,0.3,0.5,0.3,0.7c0.1,0.3,0.1,0.7,0.1,1.2V65.9z"/>
	<path class="st0" d="M283.3,64.2h1.8v1.3c0,0.5,0,0.9-0.1,1.2c-0.1,0.3-0.3,0.6-0.5,0.8c-0.2,0.2-0.6,0.4-0.9,0.6l-0.3-0.7
		c0.4-0.1,0.6-0.3,0.8-0.5c0.2-0.2,0.2-0.5,0.2-0.8h-0.9V64.2z"/>
	<path class="st0" d="M289.9,64l1.8-0.3c0.1,0.3,0.2,0.6,0.5,0.8c0.2,0.2,0.6,0.3,1,0.3c0.5,0,0.8-0.1,1-0.3
		c0.2-0.1,0.2-0.3,0.2-0.5c0-0.1,0-0.2-0.1-0.3c-0.1-0.1-0.3-0.2-0.6-0.2c-1.4-0.3-2.3-0.6-2.7-0.9c-0.5-0.4-0.8-0.9-0.8-1.5
		c0-0.6,0.2-1.1,0.7-1.5c0.5-0.4,1.2-0.6,2.1-0.6c0.9,0,1.6,0.1,2,0.4c0.4,0.3,0.8,0.7,0.9,1.3l-1.7,0.3c-0.1-0.3-0.2-0.5-0.4-0.6
		c-0.2-0.1-0.5-0.2-0.9-0.2c-0.5,0-0.8,0.1-1,0.2c-0.1,0.1-0.2,0.2-0.2,0.4c0,0.1,0.1,0.2,0.2,0.3c0.2,0.1,0.7,0.3,1.7,0.5
		c0.9,0.2,1.6,0.5,2,0.8c0.4,0.3,0.6,0.8,0.6,1.3c0,0.6-0.3,1.1-0.8,1.6c-0.5,0.4-1.3,0.7-2.3,0.7c-0.9,0-1.6-0.2-2.2-0.6
		S290,64.7,289.9,64z"/>
	<path class="st0" d="M297.7,65.9v-6.7h1.8v6.7H297.7z M297.7,58.3v-1.6h1.8v1.6H297.7z"/>
	<path class="st0" d="M305.2,62c0-0.5-0.1-0.9-0.4-1.2c-0.3-0.3-0.6-0.4-0.9-0.4c-0.4,0-0.7,0.1-1,0.4c-0.3,0.3-0.4,0.7-0.4,1.1
		H305.2z M305.1,63.8l1.8,0.3c-0.2,0.6-0.6,1.1-1.1,1.5c-0.5,0.3-1.1,0.5-1.8,0.5c-1.2,0-2-0.4-2.6-1.1c-0.4-0.6-0.7-1.4-0.7-2.3
		c0-1.1,0.3-2,0.9-2.6c0.6-0.6,1.3-0.9,2.2-0.9c1,0,1.8,0.3,2.4,1c0.6,0.7,0.8,1.7,0.8,3h-4.4c0,0.5,0.2,0.9,0.4,1.2
		c0.3,0.3,0.6,0.4,1,0.4c0.3,0,0.5-0.1,0.7-0.2C304.9,64.4,305,64.1,305.1,63.8z"/>
	<path class="st0" d="M308.3,59.2h1.6v0.9c0.6-0.7,1.3-1.1,2.1-1.1c0.4,0,0.8,0.1,1.1,0.3c0.3,0.2,0.6,0.4,0.8,0.8
		c0.3-0.4,0.6-0.6,0.9-0.8c0.3-0.2,0.7-0.3,1.1-0.3c0.5,0,0.9,0.1,1.2,0.3c0.3,0.2,0.6,0.5,0.8,0.9c0.1,0.3,0.2,0.7,0.2,1.4v4.3
		h-1.8v-3.8c0-0.7-0.1-1.1-0.2-1.3c-0.2-0.3-0.4-0.4-0.8-0.4c-0.2,0-0.5,0.1-0.7,0.2c-0.2,0.2-0.4,0.4-0.5,0.7
		c-0.1,0.3-0.1,0.8-0.1,1.4v3.2h-1.8v-3.7c0-0.6,0-1.1-0.1-1.3c-0.1-0.2-0.2-0.3-0.3-0.4c-0.1-0.1-0.3-0.1-0.5-0.1
		c-0.3,0-0.5,0.1-0.7,0.2c-0.2,0.1-0.4,0.4-0.5,0.6c-0.1,0.3-0.1,0.7-0.1,1.4v3.2h-1.8V59.2z"/>
	<path class="st0" d="M321.5,62.5c0,0.8,0.1,1.3,0.4,1.7c0.3,0.4,0.7,0.5,1.1,0.5c0.4,0,0.8-0.2,1-0.5c0.3-0.3,0.4-0.9,0.4-1.6
		c0-0.7-0.1-1.2-0.4-1.6c-0.3-0.3-0.6-0.5-1-0.5c-0.4,0-0.8,0.2-1.1,0.5C321.7,61.3,321.5,61.8,321.5,62.5z M319.8,59.2h1.6v1
		c0.2-0.3,0.5-0.6,0.9-0.8c0.4-0.2,0.8-0.3,1.2-0.3c0.8,0,1.4,0.3,2,0.9c0.5,0.6,0.8,1.5,0.8,2.5c0,1.1-0.3,2-0.8,2.6
		c-0.5,0.6-1.2,0.9-2,0.9c-0.4,0-0.7-0.1-1-0.2c-0.3-0.1-0.6-0.4-0.9-0.8v3.3h-1.8V59.2z"/>
	<path class="st0" d="M329.4,65.9h-1.8v-6.7h1.6v1c0.3-0.4,0.5-0.7,0.8-0.9c0.2-0.1,0.5-0.2,0.8-0.2c0.4,0,0.8,0.1,1.2,0.3l-0.5,1.5
		c-0.3-0.2-0.6-0.3-0.8-0.3c-0.2,0-0.5,0.1-0.6,0.2c-0.2,0.1-0.3,0.4-0.4,0.7c-0.1,0.4-0.1,1.1-0.1,2.2V65.9z"/>
	<path class="st0" d="M336.7,62c0-0.5-0.1-0.9-0.4-1.2c-0.3-0.3-0.6-0.4-0.9-0.4c-0.4,0-0.7,0.1-1,0.4c-0.3,0.3-0.4,0.7-0.4,1.1
		H336.7z M336.6,63.8l1.8,0.3c-0.2,0.6-0.6,1.1-1.1,1.5c-0.5,0.3-1.1,0.5-1.8,0.5c-1.2,0-2-0.4-2.6-1.1c-0.4-0.6-0.7-1.4-0.7-2.3
		c0-1.1,0.3-2,0.9-2.6c0.6-0.6,1.3-0.9,2.2-0.9c1,0,1.8,0.3,2.4,1c0.6,0.7,0.8,1.7,0.8,3H334c0,0.5,0.2,0.9,0.4,1.2
		c0.3,0.3,0.6,0.4,1,0.4c0.3,0,0.5-0.1,0.7-0.2C336.4,64.4,336.5,64.1,336.6,63.8z"/>
	<rect x="339.9" y="64.2" class="st0" width="1.8" height="1.8"/>
	<polygon class="st1" points="11,10.5 47.1,10.5 47.1,20 35,20 35,49 23.1,49 23.1,20 11,20 	"/>
	<path class="st1" d="M58.5,35.1c0,2.5,0.5,4.3,1.5,5.5c1,1.2,2.3,1.8,3.8,1.8c1.5,0,2.8-0.6,3.8-1.8c1-1.2,1.5-3.1,1.5-5.7
		c0-2.4-0.5-4.2-1.5-5.4c-1-1.2-2.2-1.8-3.7-1.8c-1.5,0-2.8,0.6-3.8,1.8C59,30.8,58.5,32.7,58.5,35.1z M47.8,35.1
		c0-4.3,1.4-7.8,4.3-10.5c2.9-2.8,6.7-4.1,11.6-4.1c5.6,0,9.8,1.6,12.6,4.9c2.3,2.6,3.4,5.8,3.4,9.6c0,4.3-1.4,7.8-4.3,10.5
		c-2.8,2.7-6.8,4.1-11.8,4.1c-4.5,0-8.1-1.1-10.8-3.4C49.5,43.4,47.8,39.7,47.8,35.1z"/>
	<path class="st1" d="M97.8,10.5v10.6h5.9V29h-5.9v9.9c0,1.2,0.1,2,0.3,2.4c0.4,0.6,1,0.9,1.8,0.9c0.8,0,1.9-0.2,3.3-0.7l0.8,7.4
		c-2.6,0.6-5.1,0.9-7.4,0.9c-2.7,0-4.6-0.3-5.9-1c-1.3-0.7-2.2-1.7-2.8-3.1c-0.6-1.4-0.9-3.6-0.9-6.7V29h-3.9v-7.8h3.9V16L97.8,10.5
		z"/>
	<path class="st1" d="M127.7,35.7c-1.5,0.5-3,1-4.6,1.4c-2.2,0.6-3.5,1.2-4.1,1.7c-0.6,0.6-0.9,1.2-0.9,2c0,0.8,0.3,1.5,0.9,2.1
		c0.6,0.5,1.4,0.8,2.6,0.8c1.2,0,2.3-0.3,3.3-0.9c1-0.6,1.8-1.3,2.2-2.1c0.4-0.8,0.6-1.9,0.6-3.3V35.7z M118.5,30.1l-10.2-1.1
		c0.4-1.8,0.9-3.2,1.7-4.2c0.7-1,1.8-1.9,3.1-2.7c1-0.5,2.3-1,4-1.3c1.7-0.3,3.6-0.4,5.6-0.4c3.2,0,5.8,0.2,7.7,0.5
		c1.9,0.4,3.6,1.1,4.8,2.2c0.9,0.8,1.6,1.9,2.1,3.3c0.5,1.4,0.8,2.8,0.8,4.1V43c0,1.3,0.1,2.3,0.2,3.1c0.2,0.7,0.5,1.7,1.1,2.8h-10
		c-0.4-0.7-0.7-1.3-0.8-1.6c-0.1-0.4-0.2-1-0.4-1.8c-1.4,1.3-2.8,2.3-4.2,2.9c-1.9,0.8-4.1,1.2-6.6,1.2c-3.3,0-5.8-0.8-7.6-2.3
		c-1.7-1.5-2.6-3.4-2.6-5.7c0-2.1,0.6-3.9,1.9-5.2c1.2-1.4,3.5-2.4,6.9-3c4-0.8,6.6-1.4,7.8-1.7c1.2-0.3,2.4-0.7,3.8-1.3
		c0-1.3-0.3-2.2-0.8-2.8c-0.5-0.5-1.5-0.8-2.9-0.8c-1.7,0-3.1,0.3-3.9,0.8C119.4,28.1,118.9,28.9,118.5,30.1z"/>
	<rect x="144.9" y="10.5" class="st1" width="10.7" height="38.4"/>
	<path class="st2" d="M174.9,27h2.9c2.3,0,3.9-0.4,4.9-1.2c0.9-0.8,1.4-1.8,1.4-3.1c0-1.2-0.4-2.2-1.2-3.1c-0.8-0.8-2.3-1.3-4.6-1.3
		h-3.4V27z M163,10.5h19.8c4.3,0,7.5,1,9.7,3.1c2.1,2,3.2,5,3.2,8.7c0,3.9-1.2,6.9-3.5,9.1c-2.3,2.2-5.9,3.3-10.7,3.3h-6.5V49H163
		V10.5z"/>
	<path class="st2" d="M219.5,35.7c-1.5,0.5-3,1-4.6,1.4c-2.2,0.6-3.5,1.2-4.1,1.7c-0.6,0.6-0.9,1.2-0.9,2c0,0.8,0.3,1.5,0.9,2.1
		c0.6,0.5,1.4,0.8,2.6,0.8c1.2,0,2.3-0.3,3.3-0.9c1-0.6,1.8-1.3,2.2-2.1c0.4-0.8,0.6-1.9,0.6-3.3V35.7z M210.2,30.1L200,29.1
		c0.4-1.8,0.9-3.2,1.7-4.2c0.7-1,1.8-1.9,3.1-2.7c1-0.5,2.3-1,4-1.3c1.7-0.3,3.6-0.4,5.6-0.4c3.2,0,5.8,0.2,7.7,0.5
		c1.9,0.4,3.6,1.1,4.8,2.2c0.9,0.8,1.6,1.9,2.1,3.3c0.5,1.4,0.8,2.8,0.8,4.1V43c0,1.3,0.1,2.3,0.2,3.1c0.2,0.7,0.5,1.7,1.1,2.8h-10
		c-0.4-0.7-0.7-1.3-0.8-1.6c-0.1-0.4-0.2-1-0.4-1.8c-1.4,1.3-2.8,2.3-4.2,2.9c-1.9,0.8-4.1,1.2-6.6,1.2c-3.3,0-5.8-0.8-7.6-2.3
		c-1.7-1.5-2.6-3.4-2.6-5.7c0-2.1,0.6-3.9,1.9-5.2c1.2-1.4,3.5-2.4,6.9-3c4-0.8,6.6-1.4,7.8-1.7c1.2-0.3,2.4-0.7,3.8-1.3
		c0-1.3-0.3-2.2-0.8-2.8c-0.5-0.5-1.5-0.8-2.9-0.8c-1.7,0-3.1,0.3-3.9,0.8C211.2,28.1,210.7,28.9,210.2,30.1z"/>
	<path class="st2" d="M257,38.1l10.1,1.1c-0.6,2.1-1.5,4-2.8,5.5c-1.3,1.6-2.9,2.8-4.9,3.6c-2,0.9-4.5,1.3-7.6,1.3
		c-3,0-5.4-0.3-7.4-0.8c-2-0.6-3.7-1.4-5.1-2.7c-1.4-1.2-2.5-2.7-3.3-4.3c-0.8-1.7-1.2-3.9-1.2-6.6c0-2.9,0.5-5.3,1.5-7.2
		c0.7-1.4,1.7-2.7,2.9-3.8c1.2-1.1,2.5-1.9,3.8-2.5c2.1-0.9,4.7-1.3,8-1.3c4.5,0,8,0.8,10.4,2.4c2.4,1.6,4.1,4,5,7.1l-10,1.3
		c-0.3-1.2-0.9-2.1-1.7-2.7c-0.8-0.6-1.9-0.9-3.3-0.9c-1.8,0-3.2,0.6-4.3,1.9c-1.1,1.3-1.6,3.2-1.6,5.8c0,2.3,0.5,4,1.6,5.2
		c1.1,1.2,2.5,1.8,4.1,1.8c1.4,0,2.6-0.4,3.5-1.1C255.9,40.6,256.6,39.6,257,38.1z"/>
	<polygon class="st2" points="271.4,10.5 282.3,10.5 282.3,30.3 290.3,21.1 303.4,21.1 293.4,30.9 304,49 292,49 286.3,37.8 
		282.3,41.7 282.3,49 271.4,49 	"/>
	<path class="st0" d="M308.1,45.3h1.1c0.2,0,0.4,0,0.5-0.1c0.1,0,0.2-0.1,0.3-0.2c0.1-0.1,0.1-0.2,0.1-0.3c0-0.2-0.1-0.3-0.2-0.4
		c-0.1-0.1-0.3-0.2-0.6-0.2h-1.2V45.3z M307.6,47.4v-3.8h1.7c0.3,0,0.6,0,0.8,0.1c0.2,0.1,0.3,0.2,0.4,0.4c0.1,0.2,0.2,0.4,0.2,0.6
		c0,0.3-0.1,0.5-0.3,0.7c-0.2,0.2-0.4,0.3-0.8,0.3c0.1,0.1,0.2,0.1,0.3,0.2c0.1,0.1,0.3,0.3,0.4,0.5l0.7,1h-0.6l-0.5-0.8
		c-0.1-0.2-0.3-0.4-0.4-0.5c-0.1-0.1-0.2-0.2-0.3-0.3c-0.1,0-0.2-0.1-0.2-0.1c-0.1,0-0.1,0-0.3,0h-0.6v1.7H307.6z"/>
	<path class="st3" d="M305.4,45.5c0-1.9,1.6-3.5,3.5-3.5c1.9,0,3.5,1.6,3.5,3.5c0,1.9-1.6,3.5-3.5,3.5
		C306.9,49,305.4,47.4,305.4,45.5z"/>
</g>
</svg>
