<?xml version="1.0" encoding="utf-8"?>
<!-- Generator: Adobe Illustrator 22.0.0, SVG Export Plug-In . SVG Version: 6.00 Build 0)  -->
<svg version="1.1" id="Layer_1" xmlns="http://www.w3.org/2000/svg" xmlns:xlink="http://www.w3.org/1999/xlink" x="0px" y="0px"
	 viewBox="0 0 50 50" style="enable-background:new 0 0 50 50;" xml:space="preserve">
<style type="text/css">
	.st0{fill:#F6F6F6;}
	.st1{fill:#FFFFFF;}
</style>
<g>
	<g>
		<path class="st0" d="M46.7,46.1c-1.7,0-2.1-1.5-3.6-1.5c-1.1,0-1.5,0.7-1.5,1.7c0,1.1,0.4,2.1,0.4,3.2v0.1c-0.2,0-0.3,0-0.5,0
			c-1.4,0.1-2.8,0.4-4.3,0.4c-1,0-2-0.4-2-1.5c0-1.5,1.5-1.9,1.5-3.6c0-1.5-1.2-2.3-2.6-2.3c-1.4,0-2.8,0.8-2.8,2.4
			c0,1.7,1.3,2.5,1.3,3.4c0,0.5-0.3,0.9-0.6,1.2c-0.4,0.4-1,0.5-1.6,0.5c-1.1,0-2.2-0.1-3.4-0.3c-0.2,0-0.5-0.1-0.8-0.1l-0.2,0
			c0,0-0.1,0-0.1,0v-14c0.1,0,0.9,0.1,1,0.2c1.1,0.2,2.2,0.3,3.4,0.3c0.6,0,1.2-0.1,1.6-0.5c0.3-0.3,0.6-0.7,0.6-1.2
			c0-0.9-1.3-1.7-1.3-3.4c0-1.6,1.3-2.4,2.8-2.4c1.4,0,2.6,0.8,2.6,2.3c0,1.7-1.5,2.1-1.5,3.6c0,1.1,1,1.5,2,1.5
			c1.6,0,3.1-0.4,4.7-0.4v0c0,0.1-0.1,0.9-0.2,1c-0.2,1.1-0.3,2.2-0.3,3.4c0,0.6,0.1,1.2,0.5,1.6c0.3,0.3,0.7,0.6,1.2,0.6
			c0.9,0,1.7-1.3,3.4-1.3c1.6,0,2.4,1.3,2.4,2.8C49,44.9,48.2,46.1,46.7,46.1z"/>
	</g>
	<g>
		<path class="st1" d="M23,43.2h-2.5c-0.5,0-0.8-0.4-0.8-0.8v-4.9c0-0.5,0.4-0.8,0.8-0.8H23v-3.2c0.1,0.1,1.2,0.2,1.4,0.2
			c1.5,0.2,4.9,0.5,6.5,0.5c0.8,0-1.2-3.3-1.2-5.7c0-2.2,2.4-2.9,4.4-2.9c1.9,0,4.4,0.9,4.4,2.9c0,2.3-2.2,5.6-0.9,5.6
			c1.4,0,3.6-0.2,5-0.4V2.4c0-0.9-0.7-1.6-1.6-1.6H8.3c-0.9,0-1.6,0.7-1.6,1.6v42.4c0,0.9,0.7,1.6,1.6,1.6H23V43.2z M32.8,8.1
			c0-0.5,0.4-0.8,0.8-0.8h1.6c0.5,0,0.8,0.4,0.8,0.8v1.6c0,0.5-0.4,0.8-0.8,0.8h-1.6c-0.5,0-0.8-0.4-0.8-0.8V8.1z M32.8,14.6
			c0-0.5,0.4-0.8,0.8-0.8h1.6c0.5,0,0.8,0.4,0.8,0.8v1.6c0,0.5-0.4,0.8-0.8,0.8h-1.6c-0.5,0-0.8-0.4-0.8-0.8V14.6z M32.8,21.1
			c0-0.5,0.4-0.8,0.8-0.8h1.6c0.5,0,0.8,0.4,0.8,0.8v1.6c0,0.5-0.4,0.8-0.8,0.8h-1.6c-0.5,0-0.8-0.4-0.8-0.8V21.1z M26.2,8.1
			c0-0.5,0.4-0.8,0.8-0.8h1.6c0.5,0,0.8,0.4,0.8,0.8v1.6c0,0.5-0.4,0.8-0.8,0.8h-1.6c-0.5,0-0.8-0.4-0.8-0.8V8.1z M26.2,14.6
			c0-0.5,0.4-0.8,0.8-0.8h1.6c0.5,0,0.8,0.4,0.8,0.8v1.6c0,0.5-0.4,0.8-0.8,0.8h-1.6c-0.5,0-0.8-0.4-0.8-0.8V14.6z M26.2,21.1
			c0-0.5,0.4-0.8,0.8-0.8h1.6c0.5,0,0.8,0.4,0.8,0.8v1.6c0,0.5-0.4,0.8-0.8,0.8h-1.6c-0.5,0-0.8-0.4-0.8-0.8V21.1z M26.2,27.7
			c0-0.5,0.4-0.8,0.8-0.8h1.6c0.5,0,0.8,0.4,0.8,0.8v1.6c0,0.5-0.4,0.8-0.8,0.8h-1.6c-0.5,0-0.8-0.4-0.8-0.8V27.7z M19.7,8.1
			c0-0.5,0.4-0.8,0.8-0.8h1.6c0.5,0,0.8,0.4,0.8,0.8v1.6c0,0.5-0.4,0.8-0.8,0.8h-1.6c-0.5,0-0.8-0.4-0.8-0.8V8.1z M19.7,14.6
			c0-0.5,0.4-0.8,0.8-0.8h1.6c0.5,0,0.8,0.4,0.8,0.8v1.6c0,0.5-0.4,0.8-0.8,0.8h-1.6c-0.5,0-0.8-0.4-0.8-0.8V14.6z M19.7,21.1
			c0-0.5,0.4-0.8,0.8-0.8h1.6c0.5,0,0.8,0.4,0.8,0.8v1.6c0,0.5-0.4,0.8-0.8,0.8h-1.6c-0.5,0-0.8-0.4-0.8-0.8V21.1z M19.7,27.7
			c0-0.5,0.4-0.8,0.8-0.8h1.6c0.5,0,0.8,0.4,0.8,0.8v1.6c0,0.5-0.4,0.8-0.8,0.8h-1.6c-0.5,0-0.8-0.4-0.8-0.8V27.7z M16.5,35.8
			c0,0.5-0.4,0.8-0.8,0.8H14c-0.5,0-0.8-0.4-0.8-0.8v-1.6c0-0.5,0.4-0.8,0.8-0.8h1.6c0.5,0,0.8,0.4,0.8,0.8V35.8z M16.5,29.3
			c0,0.5-0.4,0.8-0.8,0.8H14c-0.5,0-0.8-0.4-0.8-0.8v-1.6c0-0.5,0.4-0.8,0.8-0.8h1.6c0.5,0,0.8,0.4,0.8,0.8V29.3z M16.5,22.8
			c0,0.5-0.4,0.8-0.8,0.8H14c-0.5,0-0.8-0.4-0.8-0.8v-1.6c0-0.5,0.4-0.8,0.8-0.8h1.6c0.5,0,0.8,0.4,0.8,0.8V22.8z M16.5,16.3
			c0,0.5-0.4,0.8-0.8,0.8H14c-0.5,0-0.8-0.4-0.8-0.8v-1.6c0-0.5,0.4-0.8,0.8-0.8h1.6c0.5,0,0.8,0.4,0.8,0.8V16.3z M16.5,9.7
			c0,0.5-0.4,0.8-0.8,0.8H14c-0.5,0-0.8-0.4-0.8-0.8V8.1c0-0.5,0.4-0.8,0.8-0.8h1.6c0.5,0,0.8,0.4,0.8,0.8V9.7z"/>
	</g>
</g>
</svg>
